<svg width="42px" height="42px" viewBox="0 0 42 42" version="1.1" xmlns="http://www.w3.org/2000/svg" xmlns:xlink="http://www.w3.org/1999/xlink">
    <title>icon/technology/map/Admin</title>
    <defs>
        <linearGradient x1="0.615533438%" y1="49.9683277%" x2="100%" y2="49.9683277%" id="linearGradient-1">
            <stop stop-color="#70EBF2" offset="0%"></stop>
            <stop stop-color="#26C6DA" offset="100%"></stop>
        </linearGradient>
    </defs>
    <g id="icon/technology/map/Admin" stroke="none" stroke-width="1" fill="none" fill-rule="evenodd">
        <circle id="Oval-Copy-5" fill="url(#linearGradient-1)" opacity="0.35" cx="21" cy="21" r="21"></circle>
        <g id="Group" transform="translate(5.000000, 5.000000)">
            <circle id="Oval-Copy-5" fill="url(#linearGradient-1)" cx="16" cy="16" r="16"></circle>
            <path d="M13.0775111,14.2616889 C13.4632889,14.2643556 13.7921778,14.5390222 13.8641778,14.9176889 L13.8641778,14.9176889 L13.8641778,14.9710222 C13.9672889,15.4208 14.2668444,15.8003556 14.6792889,16.0083556 L14.6792889,16.0083556 L14.9921778,16.1914667 C15.3699556,16.4554667 15.8455111,16.5372444 16.2899556,16.4128 L16.2899556,16.4128 L16.3957333,16.3799111 C16.7477333,16.2670222 17.1299556,16.4163556 17.3130667,16.7363556 L17.3130667,16.7363556 L18.1619556,18.1834667 C18.3424,18.5008 18.2784,18.9025778 18.0072889,19.1479111 C17.6286222,19.4910222 17.4206222,19.9825778 17.4375111,20.4936889 L17.4375111,20.4936889 L17.4375111,20.6243556 L17.4188444,20.7301333 C17.4010667,21.2403556 17.6099556,21.7328 17.9877333,22.0759111 C18.2588444,22.3212444 18.3228444,22.7221333 18.1415111,23.0403556 L18.1415111,23.0403556 L17.2926222,24.4883556 C17.0961778,24.8190222 16.6899556,24.9612444 16.3281778,24.8252444 L16.3281778,24.8252444 L16.2801778,24.8252444 C15.8401778,24.6883556 15.3619556,24.7559111 14.9779556,25.0092444 C14.8766222,25.0714667 14.7699556,25.1292444 14.6641778,25.1870222 C14.2508444,25.3959111 13.9521778,25.7781333 13.8490667,26.2296889 L13.8490667,26.2296889 L13.8490667,26.3301333 C13.7735111,26.6919111 13.4561778,26.9505778 13.0872889,26.9523556 L13.0872889,26.9523556 L11.3939556,26.9523556 C11.0179556,26.9505778 10.6952889,26.6848 10.6215111,26.3159111 L10.6215111,26.3159111 L10.6215111,26.2296889 C10.5184,25.7781333 10.2197333,25.3959111 9.8064,25.1870222 C9.70062222,25.1292444 9.59484444,25.0714667 9.49351111,25.0092444 C9.10862222,24.7559111 8.6304,24.6883556 8.19128889,24.8252444 L8.19128889,24.8252444 L8.08995556,24.8545778 C7.73884444,24.9719111 7.35573333,24.8243556 7.17351111,24.5016889 L7.17351111,24.5016889 L6.32373333,23.0554667 C6.14328889,22.7372444 6.20817778,22.3363556 6.4784,22.0910222 C6.85706667,21.7479111 7.06506667,21.2554667 7.04817778,20.7443556 L7.04817778,20.7443556 L7.04817778,20.4839111 C7.06506667,19.9736889 6.85706667,19.4812444 6.4784,19.1381333 C6.20817778,18.8928 6.14328889,18.4919111 6.32373333,18.1736889 L6.32373333,18.1736889 L7.17351111,16.7265778 C7.36995556,16.3950222 7.77706667,16.2528 8.13795556,16.3888 L8.13795556,16.3888 L8.19128889,16.3888 C8.6304,16.5248 9.10684444,16.4599111 9.49351111,16.2101333 C9.59484444,16.1479111 9.69528889,16.0856889 9.80284444,16.0270222 C10.2144,15.8199111 10.5130667,15.4394667 10.6179556,14.9896889 L10.6179556,14.9896889 L10.6179556,14.8839111 C10.6944,14.5221333 11.0144,14.2625778 11.3841778,14.2616889 L11.3841778,14.2616889 Z M12.2286222,18.7665778 C11.2028444,18.7665778 10.3708444,19.5985778 10.3708444,20.6243556 C10.3708444,21.6492444 11.2028444,22.4812444 12.2286222,22.4812444 C13.2535111,22.4812444 14.0855111,21.6492444 14.0855111,20.6243556 C14.0855111,19.5985778 13.2535111,18.7665778 12.2286222,18.7665778 Z M20.9403556,5.33368889 C21.3261333,5.33635556 21.6559111,5.61013333 21.7270222,5.9888 L21.7270222,5.9888 L21.7270222,6.04213333 C21.8310222,6.49191111 22.1296889,6.87146667 22.5421333,7.07946667 L22.5421333,7.07946667 L22.8550222,7.26257778 C23.2328,7.52657778 23.7092444,7.60835556 24.1528,7.4848 L24.1528,7.4848 L24.2585778,7.45102222 C24.6105778,7.33902222 24.9928,7.48746667 25.1759111,7.80746667 L25.1759111,7.80746667 L26.0248,9.25457778 C26.2052444,9.5728 26.1412444,9.97457778 25.8701333,10.2199111 C25.4914667,10.5630222 25.2843556,11.0545778 25.3012444,11.5656889 L25.3012444,11.5656889 L25.3012444,11.6954667 L25.2816889,11.8012444 C25.2639111,12.3114667 25.4728,12.8048 25.8505778,13.1479111 C26.1216889,13.3932444 26.1856889,13.7941333 26.0052444,14.1123556 L26.0052444,14.1123556 L25.1563556,15.5594667 C24.9599111,15.8910222 24.5528,16.0332444 24.1919111,15.8972444 L24.1919111,15.8972444 L24.1439111,15.8972444 C23.7030222,15.7594667 23.2256889,15.8279111 22.8416889,16.0803556 C22.7394667,16.1425778 22.6336889,16.2003556 22.5270222,16.2590222 C22.1145778,16.4679111 21.8159111,16.8492444 21.7119111,17.3008 L21.7119111,17.3008 L21.7119111,17.4021333 C21.6372444,17.7630222 21.3199111,18.0225778 20.9501333,18.0243556 L20.9501333,18.0243556 L19.2576889,18.0243556 C18.8816889,18.0216889 18.5581333,17.7559111 18.4852444,17.3870222 L18.4852444,17.3870222 L18.4852444,17.3008 C18.3821333,16.8492444 18.0834667,16.4679111 17.6701333,16.2590222 C17.5643556,16.2003556 17.4576889,16.1425778 17.3572444,16.0803556 C16.9714667,15.8279111 16.4941333,15.7594667 16.0541333,15.8972444 L16.0541333,15.8972444 L15.9528,15.9256889 C15.6025778,16.0430222 15.2185778,15.8954667 15.0363556,15.5736889 L15.0363556,15.5736889 L14.1874667,14.1265778 C14.0070222,13.8083556 14.0710222,13.4083556 14.3421333,13.1621333 C14.7199111,12.8190222 14.9279111,12.3265778 14.9110222,11.8163556 L14.9110222,11.8163556 L14.9110222,11.5559111 C14.9279111,11.0456889 14.7199111,10.5532444 14.3421333,10.2101333 C14.0710222,9.96391111 14.0070222,9.56391111 14.1874667,9.2448 L14.1874667,9.2448 L15.0363556,7.79768889 C15.2336889,7.46613333 15.6399111,7.32391111 16.0008,7.45991111 L16.0008,7.45991111 L16.0541333,7.45991111 C16.4932444,7.59591111 16.9696889,7.53102222 17.3572444,7.28213333 C17.4576889,7.21902222 17.5590222,7.1568 17.6656889,7.09813333 C18.0772444,6.89191111 18.3759111,6.51146667 18.4808,6.06168889 L18.4808,6.06168889 L18.4808,5.95502222 C18.5572444,5.59324444 18.8772444,5.33457778 19.2479111,5.33368889 L19.2479111,5.33368889 Z M20.0914667,9.83857778 C19.0665778,9.83857778 18.2345778,10.6705778 18.2345778,11.6954667 C18.2345778,12.7212444 19.0665778,13.5523556 20.0914667,13.5523556 C21.1172444,13.5523556 21.9492444,12.7212444 21.9492444,11.6954667 C21.9492444,10.6705778 21.1172444,9.83857778 20.0914667,9.83857778 Z" id="Combined-Shape" fill="#FFFFFF"></path>
        </g>
    </g>
</svg>