<?xml version="1.0" encoding="UTF-8"?>
<svg width="42px" height="42px" viewBox="0 0 42 42" version="1.1" xmlns="http://www.w3.org/2000/svg" xmlns:xlink="http://www.w3.org/1999/xlink">
    <defs>
        <linearGradient x1="0.158281248%" y1="49.9683277%" x2="100%" y2="49.9683277%" id="linearGradient-1">
            <stop stop-color="#FF6D00" offset="0%"></stop>
            <stop stop-color="#FF9100" offset="100%"></stop>
        </linearGradient>
    </defs>
    <g id="icon/technology/map/Architecture" stroke="none" stroke-width="1" fill="none" fill-rule="evenodd">
        <circle id="Oval-Copy-5" fill="url(#linearGradient-1)" opacity="0.35" cx="21" cy="21" r="21"></circle>
        <g id="Group" transform="translate(5.000000, 5.000000)">
            <circle id="Oval-Copy-5" fill="url(#linearGradient-1)" cx="16" cy="16" r="16"></circle>
            <path d="M22.8832796,24.6002424 L22.8720568,20.5980032 L25.8832324,18.8541457 L26.3640882,18.5753012 L26.375311,22.5835834 L22.8832796,24.6002424 Z M21.9966749,24.6002424 L18.5037802,22.5835834 L18.5141398,18.5753012 L22.0070344,20.5919601 L21.9966749,24.6002424 Z M16.2971962,24.0002518 L14.7838388,23.1395459 C14.8710316,23.0583961 14.9331889,22.953074 14.9331889,22.8313493 L14.9185129,17.8285504 C14.9185129,17.6748837 14.8356365,17.5315766 14.702689,17.4556066 C14.6880129,17.4469736 14.6716103,17.4495635 14.656071,17.4426572 L10.3387289,14.9416893 C10.2040547,14.864856 10.0391652,14.864856 9.90621769,14.9416893 L9.59888439,15.1203915 L9.5980211,12.4312252 C10.0080866,12.191229 10.9318131,11.6559856 11.4895021,11.333113 L11.4860489,12.3915136 C11.4860489,12.5460436 11.568062,12.6893507 11.7018729,12.766184 L16.0563367,15.2801013 C16.1228105,15.3189496 16.1970539,15.3379421 16.2721607,15.3379421 C16.2773404,15.3379421 16.2816569,15.3353522 16.2859734,15.3353522 C16.2911532,15.3353522 16.2954697,15.3379421 16.3006494,15.3379421 C16.3748929,15.3379421 16.4499996,15.3189496 16.5164734,15.2801013 L20.8700739,12.766184 C21.0038848,12.6893507 21.0867612,12.5460436 21.0858979,12.3915136 L21.0824447,11.3296598 L22.9635662,12.4139593 L22.9704725,15.1298878 L22.6458733,14.9416893 C22.5103359,14.864856 22.347173,14.864856 22.2124988,14.9416893 L17.8830706,17.4504268 L17.8804807,17.4530167 C17.8770275,17.4547433 17.8735743,17.45388 17.8701211,17.4556066 C17.7363103,17.5315766 17.6542972,17.6748837 17.6534339,17.8285504 L17.6396212,22.8313493 C17.6387579,22.953074 17.7009152,23.0583961 17.788108,23.1386826 L16.2971962,24.0002518 Z M10.5657757,20.5980032 L13.576088,18.8541457 L14.057807,18.5753012 L14.0690299,22.5835834 L10.5769985,24.6002424 L10.5657757,20.5980032 Z M10.1220416,15.8144813 L13.6114831,17.8354567 L12.8086181,18.3007731 L10.1393075,19.8417561 L6.65418254,17.8233706 L10.1220416,15.8144813 Z M16.2756139,5.37464563 L19.7650553,7.39475773 L19.075282,7.79446367 L16.2928798,9.40192038 L12.8077548,7.38439818 L16.2756139,5.37464563 Z M15.8534622,10.1521244 L15.8422394,14.1604066 L12.350208,12.1437477 L12.3614308,8.13546549 L15.8534622,10.1521244 Z M27.2247941,17.8285504 C27.2239308,17.6748837 27.142781,17.5315766 27.0081068,17.4556066 C26.9951574,17.4478369 26.9778915,17.4495635 26.9640787,17.4435204 L23.8354949,15.6305993 L23.8259986,12.1636035 C23.8259986,12.0090736 23.7431222,11.8674931 23.6101747,11.7897965 L21.0962574,10.3394596 C21.0910776,10.337733 21.0850346,10.337733 21.0798548,10.3351431 L21.0712218,7.38871466 C21.0703585,7.23418471 20.9892087,7.09174091 20.8545346,7.01490759 C20.8415852,7.00713793 20.8251825,7.00972781 20.8122331,7.00282145 L16.4914378,4.50271691 C16.357627,4.42502029 16.1927375,4.42502029 16.0589266,4.50271691 L11.7303616,7.01059111 C11.7303616,7.01059111 11.7303616,7.01145441 11.7294983,7.01145441 C11.7260452,7.01404429 11.7208654,7.0123177 11.7165489,7.01490759 C11.5836014,7.09174091 11.500725,7.23418471 11.500725,7.38871466 L11.492092,10.3334165 C8.85213356,11.8623133 8.85040697,11.8631766 8.78824967,11.9771317 C8.75285454,12.0410155 8.73472533,12.1126691 8.73472533,12.1851859 L8.73558863,15.6202398 L5.57678942,17.4504268 C5.57592612,17.4512901 5.57592612,17.4521534 5.57506283,17.4530167 C5.57160964,17.4547433 5.56729317,17.45388 5.56383998,17.4556066 C5.43089243,17.5315766 5.34801604,17.6748837 5.34801604,17.8285504 L5.33333333,22.8313493 C5.33247672,22.9858793 5.41535311,23.1291864 5.54916395,23.2060197 L9.9027645,25.719937 C9.97010157,25.7587853 10.044345,25.7777778 10.1185884,25.7777778 C10.1237682,25.7777778 10.1280847,25.7743246 10.1324012,25.7743246 C10.137581,25.7743246 10.1418974,25.7777778 10.1470772,25.7777778 C10.2213206,25.7777778 10.2964274,25.7587853 10.3629011,25.719937 L13.9421254,23.6532069 L16.0848255,24.8721805 C16.1512993,24.9101655 16.2246794,24.929158 16.2989228,24.929158 C16.3731663,24.929158 16.4474097,24.9093022 16.5147468,24.8704539 L18.6255049,23.650617 L22.209909,25.719937 C22.2763827,25.7587853 22.3514895,25.7777778 22.4257329,25.7777778 C22.4309127,25.7777778 22.4343659,25.7743246 22.4386823,25.7743246 C22.4438621,25.7743246 22.4481786,25.7777778 22.4533584,25.7777778 C22.5276018,25.7777778 22.6027085,25.7587853 22.6691823,25.719937 L27.0236461,23.2060197 C27.157457,23.1291864 27.2403334,22.9858793 27.2394768,22.8313493 L27.2247941,17.8285504 Z" id="Fill-1" fill="#FFFFFF"></path>
        </g>
    </g>
</svg>
