<?xml version="1.0" encoding="UTF-8"?>
<svg width="42px" height="42px" viewBox="0 0 42 42" version="1.1" xmlns="http://www.w3.org/2000/svg" xmlns:xlink="http://www.w3.org/1999/xlink">
    <title>icon/technology/map/ERP</title>
    <defs>
        <linearGradient x1="-1.11022302e-14%" y1="50%" x2="95.8611308%" y2="50%" id="linearGradient-1">
            <stop stop-color="#1B68C2" offset="0%"></stop>
            <stop stop-color="#02AFEB" offset="100%"></stop>
        </linearGradient>
    </defs>
    <g id="icon/technology/map/ERP" stroke="none" stroke-width="1" fill="none" fill-rule="evenodd">
        <circle id="Oval-Copy-5" fill="url(#linearGradient-1)" opacity="0.35" cx="21" cy="21" r="21"></circle>
        <g id="Group" transform="translate(5.000000, 5.000000)">
            <circle id="Oval-Copy-5" fill="url(#linearGradient-1)" cx="16" cy="16" r="16"></circle>
            <g id="Group-8" transform="translate(4.444444, 5.333333)" fill="#FFFFFF">
                <path d="M21.3062222,12.1909333 L17.5844444,18.6362667 C17.1,19.4771556 16.1942222,19.9998222 15.2226667,19.9998222 L7.78,19.9998222 C6.80844444,19.9998222 5.90355556,19.4771556 5.41822222,18.6362667 L1.69644444,12.1909333 C1.21111111,11.3500444 1.21111111,10.3047111 1.69644444,9.46382222 L5.41822222,3.0176 C5.90355556,2.17671111 6.80933333,1.65404444 7.78,1.65404444 L15.2226667,1.65404444 C16.1942222,1.65404444 17.1,2.17671111 17.5844444,3.0176 L21.3062222,9.46382222 C21.7924444,10.3047111 21.7924444,11.3500444 21.3062222,12.1909333 M22.4608889,8.79715556 L18.7391111,2.35093333 C18.0173333,1.09848889 16.6688889,0.320711111 15.2226667,0.320711111 L7.78,0.320711111 C6.33466667,0.320711111 4.98711111,1.09848889 4.26355556,2.35093333 L0.542666667,8.79715556 C-0.180888889,10.0496 -0.180888889,11.6051556 0.542666667,12.8576 L4.26355556,19.3029333 C4.98622222,20.5553778 6.33377778,21.3331556 7.78,21.3331556 L15.2226667,21.3331556 C16.6697778,21.3331556 18.0173333,20.5553778 18.7391111,19.3029333 L22.4608889,12.8576 C23.1844444,11.6051556 23.1844444,10.0487111 22.4608889,8.79715556" id="Fill-6"></path>
            </g>
            <polygon id="Fill-1" fill="#FFFFFF" points="8.88888889 19.2542222 12.5742222 19.2542222 12.5742222 18.1066667 10.3208889 18.1066667 10.3208889 16.792 12.3226667 16.792 12.3226667 15.712 10.3208889 15.712 10.3208889 14.4728889 12.5742222 14.4728889 12.5742222 13.3333333 8.88888889 13.3333333"></polygon>
            <path d="M16.2808889,15.8497778 C16.1466667,15.9751111 15.9377778,16.0382222 15.6524444,16.0382222 L14.7644444,16.0382222 L14.7644444,14.5386667 L15.6524444,14.5386667 C15.9324444,14.5386667 16.1404444,14.6062222 16.2764444,14.7395556 C16.4133333,14.8737778 16.4817778,15.0586667 16.4817778,15.2933333 C16.4817778,15.5386667 16.4151111,15.7244444 16.2808889,15.8497778 M17.5822222,16.3066667 C17.8204444,16.0044444 17.9386667,15.6391111 17.9386667,15.2088889 C17.9386667,14.8462222 17.8577778,14.5235556 17.696,14.2417778 C17.5342222,13.96 17.2915556,13.7386667 16.9671111,13.576 C16.6435556,13.4142222 16.2471111,13.3333333 15.7786667,13.3333333 L13.3333333,13.3333333 L13.3333333,19.2542222 L14.7644444,19.2542222 L14.7644444,17.0177778 L15.0924444,17.0177778 L16.3733333,19.2542222 L17.9564444,19.2542222 L16.5484444,16.9253333 C17.0017778,16.8142222 17.3457778,16.608 17.5822222,16.3066667" id="Fill-2" fill="#FFFFFF"></path>
            <path d="M20.8266667,16.0302222 L20.0986667,16.0302222 L20.0986667,14.4897778 L20.8266667,14.4897778 C21.4026667,14.4897778 21.6897778,14.7493333 21.6897778,15.2684444 C21.6897778,15.776 21.4026667,16.0302222 20.8266667,16.0302222 M20.9866667,13.3333333 L18.6666667,13.3333333 L18.6666667,19.2542222 L20.0986667,19.2542222 L20.0986667,17.1777778 L20.9866667,17.1777778 C21.4488889,17.1777778 21.8435556,17.0951111 22.1671111,16.9306667 C22.4915556,16.7662222 22.7342222,16.5395556 22.9013333,16.2524444 C23.0657778,15.9644444 23.1475556,15.6373333 23.1475556,15.2684444 C23.1475556,14.6764444 22.9626667,14.2062222 22.5937778,13.8568889 C22.2257778,13.5084444 21.6897778,13.3333333 20.9866667,13.3333333" id="Fill-4" fill="#FFFFFF"></path>
        </g>
    </g>
</svg>